<svg xmlns="http://www.w3.org/2000/svg" viewBox="0 0 192 191.999996" version="1.0">
    <g>
        <path fill="#ffffff"
            d="M 83.148438 98.191406 C 82.761719 98.125 82.398438 97.992188 82.058594 97.800781 C 81.71875 97.605469 81.421875 97.355469 81.171875 97.054688 C 80.917969 96.753906 80.722656 96.421875 80.589844 96.054688 C 80.453125 95.683594 80.386719 95.304688 80.386719 94.910156 C 80.386719 94.519531 80.453125 94.140625 80.589844 93.769531 C 80.722656 93.402344 80.917969 93.066406 81.171875 92.765625 C 81.421875 92.46875 81.71875 92.21875 82.058594 92.023438 C 82.398438 91.828125 82.761719 91.699219 83.148438 91.632812 L 119.601562 91.632812 C 119.988281 91.699219 120.351562 91.828125 120.691406 92.023438 C 121.03125 92.21875 121.328125 92.46875 121.582031 92.765625 C 121.832031 93.066406 122.027344 93.402344 122.160156 93.769531 C 122.296875 94.140625 122.363281 94.519531 122.363281 94.910156 C 122.363281 95.304688 122.296875 95.683594 122.160156 96.054688 C 122.027344 96.421875 121.832031 96.753906 121.582031 97.054688 C 121.328125 97.355469 121.03125 97.605469 120.691406 97.800781 C 120.351562 97.992188 119.988281 98.125 119.601562 98.191406 Z M 143.261719 98.09375 L 143.261719 102.460938 C 143.261719 102.648438 143.199219 102.816406 143.078125 102.957031 C 142.957031 103.101562 142.804688 103.1875 142.621094 103.21875 C 142.273438 103.21875 141.921875 103.324219 141.574219 103.402344 C 140.914062 103.53125 140.269531 103.695312 139.632812 103.898438 C 138.433594 104.273438 137.300781 104.792969 136.234375 105.460938 C 135.734375 105.773438 135.257812 106.121094 134.808594 106.5 C 134.367188 106.867188 133.957031 107.265625 133.574219 107.691406 C 133.183594 108.125 132.828125 108.585938 132.507812 109.070312 C 131.160156 111.132812 130.511719 113.398438 130.566406 115.863281 C 130.566406 116.554688 130.601562 117.242188 130.675781 117.929688 C 130.75 118.558594 130.863281 119.179688 131.015625 119.792969 C 131.160156 120.355469 131.347656 120.902344 131.578125 121.433594 C 131.789062 121.933594 132.046875 122.410156 132.34375 122.859375 L 132.402344 122.949219 C 133.015625 123.855469 133.734375 124.675781 134.554688 125.402344 C 134.984375 125.800781 135.4375 126.171875 135.90625 126.519531 C 136.390625 126.871094 136.890625 127.191406 137.410156 127.492188 C 138.46875 128.0625 139.679688 128.761719 140.765625 129.246094 L 142.621094 130.121094 L 145.378906 131.332031 C 145.84375 131.566406 146.230469 131.761719 146.6875 132.011719 L 147.257812 132.390625 C 147.425781 132.507812 147.570312 132.625 147.695312 132.730469 C 147.828125 132.847656 147.953125 132.972656 148.066406 133.109375 L 148.335938 133.457031 C 148.445312 133.617188 148.539062 133.785156 148.617188 133.964844 C 148.683594 134.09375 148.734375 134.230469 148.773438 134.371094 C 148.832031 134.539062 148.875 134.710938 148.910156 134.886719 C 148.949219 135.097656 148.976562 135.3125 148.988281 135.527344 C 148.988281 135.757812 148.988281 135.992188 148.988281 136.226562 L 148.988281 136.691406 C 148.949219 136.980469 148.890625 137.265625 148.8125 137.542969 C 148.726562 137.804688 148.617188 138.054688 148.484375 138.292969 C 148.324219 138.542969 148.136719 138.765625 147.910156 138.960938 L 147.578125 139.203125 C 147.300781 139.367188 147.003906 139.484375 146.6875 139.554688 C 146.335938 139.652344 145.976562 139.707031 145.609375 139.71875 C 145.25 139.71875 145 139.71875 144.640625 139.652344 C 144.019531 139.550781 143.4375 139.34375 142.894531 139.03125 C 142.769531 138.949219 142.648438 138.863281 142.535156 138.765625 L 142.175781 138.445312 C 142.058594 138.332031 141.953125 138.210938 141.855469 138.078125 C 141.75 137.945312 141.65625 137.804688 141.574219 137.660156 C 141.484375 137.503906 141.386719 137.332031 141.3125 137.167969 C 141.234375 137 141.164062 136.828125 141.105469 136.652344 C 141.035156 136.457031 140.976562 136.261719 140.933594 136.058594 C 140.878906 135.828125 140.835938 135.597656 140.804688 135.359375 C 140.804688 135.128906 140.746094 134.867188 140.726562 134.59375 C 140.726562 134.304688 140.726562 134.023438 140.726562 133.742188 C 140.726562 133.621094 140.6875 133.523438 140.601562 133.441406 C 140.515625 133.351562 140.414062 133.3125 140.292969 133.3125 L 129.335938 133.3125 C 129.21875 133.3125 129.117188 133.355469 129.035156 133.441406 C 128.949219 133.519531 128.90625 133.621094 128.90625 133.742188 C 128.90625 134.488281 128.90625 135.175781 128.996094 135.816406 C 129.082031 136.457031 129.152344 137.097656 129.265625 137.757812 C 129.382812 138.335938 129.535156 138.90625 129.722656 139.464844 C 129.894531 139.992188 130.097656 140.507812 130.335938 141.007812 L 130.394531 141.125 C 130.625 141.601562 130.886719 142.097656 131.167969 142.523438 C 131.453125 142.960938 131.753906 143.378906 132.082031 143.785156 C 132.402344 144.175781 132.746094 144.550781 133.109375 144.902344 C 133.457031 145.25 133.828125 145.570312 134.214844 145.871094 L 134.304688 145.9375 C 134.699219 146.230469 135.105469 146.496094 135.527344 146.746094 C 135.953125 147.007812 136.390625 147.238281 136.847656 147.460938 C 137.300781 147.6875 137.75 147.859375 138.226562 148.046875 C 138.699219 148.230469 139.195312 148.367188 139.652344 148.5 C 140.105469 148.636719 140.417969 148.695312 140.796875 148.773438 C 141.175781 148.851562 141.59375 148.9375 141.960938 148.996094 C 142.144531 149.023438 142.296875 149.109375 142.417969 149.25 C 142.539062 149.394531 142.601562 149.558594 142.601562 149.742188 L 142.601562 153.917969 C 142.632812 154.316406 142.75 154.695312 142.949219 155.042969 C 143.027344 155.1875 142.949219 155.304688 143.039062 155.304688 L 148.074219 155.304688 C 148.195312 155.308594 148.300781 155.265625 148.386719 155.179688 C 148.472656 155.09375 148.515625 154.988281 148.511719 154.867188 L 148.511719 149.761719 C 148.511719 149.578125 148.570312 149.414062 148.691406 149.273438 C 148.808594 149.132812 148.960938 149.046875 149.140625 149.015625 L 149.78125 148.910156 C 150.4375 148.785156 151.085938 148.625 151.722656 148.433594 C 152.914062 148.066406 154.046875 147.570312 155.121094 146.9375 C 155.605469 146.652344 156.066406 146.328125 156.5 145.96875 C 156.945312 145.605469 157.363281 145.210938 157.75 144.785156 C 158.144531 144.355469 158.5 143.894531 158.816406 143.40625 C 159.148438 142.925781 159.433594 142.417969 159.671875 141.882812 C 159.917969 141.339844 160.121094 140.785156 160.285156 140.214844 C 160.445312 139.613281 160.566406 139.003906 160.640625 138.390625 C 160.726562 137.746094 160.765625 137.097656 160.769531 136.449219 C 160.769531 135.761719 160.730469 135.082031 160.652344 134.398438 C 160.574219 133.773438 160.457031 133.15625 160.304688 132.546875 C 160.152344 131.96875 159.953125 131.410156 159.710938 130.867188 C 159.488281 130.367188 159.222656 129.886719 158.914062 129.429688 C 158.617188 128.976562 158.292969 128.542969 157.945312 128.132812 C 157.574219 127.707031 157.179688 127.304688 156.761719 126.925781 C 156.347656 126.550781 155.914062 126.199219 155.460938 125.871094 C 154.996094 125.53125 154.488281 125.199219 153.984375 124.898438 L 153.917969 124.898438 C 153.402344 124.597656 152.859375 124.289062 152.277344 123.929688 C 151.695312 123.570312 151.210938 123.347656 150.570312 123.027344 C 149.929688 122.707031 149.394531 122.433594 148.804688 122.152344 C 147.832031 121.726562 146.941406 121.308594 146.015625 120.851562 L 145.269531 120.445312 L 144.640625 120.074219 C 144.261719 119.8125 144.019531 119.648438 143.667969 119.359375 C 143.40625 119.121094 143.175781 118.859375 142.96875 118.570312 C 142.878906 118.449219 142.800781 118.320312 142.738281 118.183594 C 142.675781 118.050781 142.621094 117.914062 142.574219 117.777344 C 142.523438 117.636719 142.480469 117.492188 142.445312 117.347656 C 142.414062 117.183594 142.390625 117.015625 142.378906 116.84375 L 142.378906 115.835938 C 142.417969 115.523438 142.476562 115.214844 142.554688 114.914062 L 142.707031 114.464844 C 142.757812 114.335938 142.820312 114.207031 142.894531 114.089844 C 142.964844 113.96875 143.042969 113.855469 143.136719 113.75 C 143.320312 113.519531 143.53125 113.320312 143.777344 113.15625 C 143.886719 113.085938 144.003906 113.019531 144.125 112.960938 L 144.542969 112.828125 C 144.710938 112.78125 144.882812 112.746094 145.058594 112.730469 C 145.246094 112.71875 145.433594 112.71875 145.621094 112.730469 C 145.867188 112.726562 146.113281 112.75 146.355469 112.796875 C 146.578125 112.839844 146.789062 112.898438 146.996094 112.980469 L 147.046875 112.980469 C 147.257812 113.070312 147.457031 113.179688 147.648438 113.3125 C 147.84375 113.441406 148.027344 113.589844 148.191406 113.757812 L 148.25 113.816406 C 148.441406 114.019531 148.605469 114.246094 148.734375 114.496094 C 148.859375 114.75 148.957031 115.011719 149.035156 115.28125 L 149.035156 115.378906 C 149.140625 115.78125 149.210938 116.1875 149.25 116.601562 C 149.25 117.027344 149.316406 117.515625 149.328125 118.039062 C 149.324219 118.144531 149.359375 118.238281 149.425781 118.320312 C 149.507812 118.402344 149.605469 118.445312 149.726562 118.445312 L 160.613281 118.445312 C 160.730469 118.445312 160.832031 118.402344 160.914062 118.320312 C 161 118.234375 161.042969 118.128906 161.039062 118.007812 C 161.042969 117.273438 161 116.539062 160.914062 115.804688 C 160.835938 115.117188 160.71875 114.433594 160.554688 113.757812 C 160.402344 113.125 160.203125 112.503906 159.964844 111.894531 C 159.734375 111.320312 159.460938 110.761719 159.148438 110.226562 L 159.082031 110.101562 C 158.761719 109.558594 158.40625 109.046875 158.011719 108.554688 C 157.628906 108.070312 157.214844 107.617188 156.761719 107.199219 C 156.320312 106.675781 155.835938 106.191406 155.316406 105.75 C 154.792969 105.390625 154.25 105.066406 153.683594 104.78125 C 152.519531 104.195312 151.304688 103.757812 150.035156 103.472656 L 149.820312 103.472656 C 149.640625 103.441406 149.488281 103.355469 149.371094 103.214844 C 149.25 103.070312 149.191406 102.910156 149.191406 102.722656 L 149.191406 98.164062 C 149.191406 98.058594 149.15625 97.964844 149.09375 97.882812 C 149.007812 97.796875 148.90625 97.753906 148.785156 97.753906 L 143.667969 97.753906 C 143.546875 97.753906 143.445312 97.796875 143.359375 97.882812 C 143.273438 97.964844 143.234375 98.066406 143.230469 98.183594 Z M 116.804688 146.394531 C 117.242188 146.394531 117.664062 146.480469 118.066406 146.644531 C 118.46875 146.8125 118.824219 147.050781 119.132812 147.359375 C 119.441406 147.667969 119.679688 148.023438 119.847656 148.425781 C 120.011719 148.828125 120.097656 149.25 120.097656 149.683594 C 120.097656 150.121094 120.011719 150.542969 119.847656 150.945312 C 119.679688 151.347656 119.441406 151.703125 119.132812 152.011719 C 118.824219 152.320312 118.46875 152.558594 118.066406 152.726562 C 117.664062 152.890625 117.242188 152.976562 116.804688 152.976562 L 49.425781 152.976562 C 48.921875 152.976562 48.425781 152.925781 47.933594 152.828125 C 47.4375 152.730469 46.960938 152.585938 46.496094 152.390625 C 46.03125 152.199219 45.589844 151.964844 45.171875 151.683594 C 44.753906 151.40625 44.367188 151.089844 44.011719 150.730469 C 43.65625 150.375 43.339844 149.988281 43.058594 149.570312 C 42.78125 149.152344 42.542969 148.710938 42.351562 148.25 C 42.160156 147.785156 42.015625 147.304688 41.917969 146.8125 C 41.816406 146.320312 41.769531 145.820312 41.769531 145.316406 L 41.769531 44.503906 C 41.769531 44.003906 41.816406 43.503906 41.917969 43.011719 C 42.015625 42.519531 42.160156 42.039062 42.351562 41.574219 C 42.542969 41.109375 42.78125 40.667969 43.058594 40.25 C 43.339844 39.832031 43.65625 39.445312 44.011719 39.089844 C 44.367188 38.734375 44.753906 38.417969 45.171875 38.136719 C 45.589844 37.859375 46.03125 37.625 46.496094 37.429688 C 46.960938 37.238281 47.4375 37.09375 47.933594 36.996094 C 48.425781 36.898438 48.921875 36.847656 49.425781 36.847656 L 143.457031 36.847656 C 143.957031 36.847656 144.457031 36.898438 144.949219 36.996094 C 145.441406 37.09375 145.921875 37.238281 146.386719 37.429688 C 146.851562 37.625 147.292969 37.859375 147.710938 38.136719 C 148.128906 38.417969 148.515625 38.734375 148.871094 39.089844 C 149.226562 39.445312 149.542969 39.832031 149.820312 40.25 C 150.101562 40.667969 150.335938 41.109375 150.53125 41.574219 C 150.722656 42.039062 150.867188 42.519531 150.964844 43.011719 C 151.0625 43.503906 151.113281 44.003906 151.113281 44.503906 L 151.113281 80.832031 C 151.113281 81.265625 151.03125 81.6875 150.863281 82.089844 C 150.695312 82.492188 150.460938 82.851562 150.152344 83.160156 C 149.84375 83.46875 149.484375 83.707031 149.082031 83.875 C 148.679688 84.039062 148.257812 84.125 147.824219 84.125 C 147.386719 84.125 146.964844 84.039062 146.5625 83.875 C 146.160156 83.707031 145.804688 83.46875 145.496094 83.160156 C 145.1875 82.851562 144.949219 82.492188 144.78125 82.089844 C 144.613281 81.6875 144.53125 81.265625 144.53125 80.832031 L 144.53125 44.503906 C 144.53125 44.207031 144.421875 43.957031 144.210938 43.75 C 144.003906 43.539062 143.75 43.433594 143.457031 43.429688 L 49.425781 43.429688 C 49.132812 43.433594 48.875 43.535156 48.660156 43.738281 C 48.460938 43.957031 48.355469 44.210938 48.347656 44.503906 L 48.347656 145.308594 C 48.347656 145.453125 48.375 145.589844 48.429688 145.71875 C 48.484375 145.851562 48.5625 145.96875 48.664062 146.070312 C 48.765625 146.171875 48.882812 146.25 49.015625 146.304688 C 49.144531 146.359375 49.285156 146.386719 49.425781 146.386719 L 116.804688 146.386719 Z M 83.148438 122.328125 C 82.761719 122.253906 82.402344 122.113281 82.0625 121.910156 C 81.722656 121.710938 81.429688 121.457031 81.179688 121.152344 C 80.929688 120.847656 80.738281 120.511719 80.605469 120.140625 C 80.472656 119.769531 80.40625 119.386719 80.40625 118.992188 C 80.40625 118.601562 80.472656 118.21875 80.605469 117.847656 C 80.738281 117.476562 80.929688 117.140625 81.179688 116.835938 C 81.429688 116.53125 81.722656 116.277344 82.0625 116.078125 C 82.402344 115.875 82.761719 115.734375 83.148438 115.660156 L 111.808594 115.660156 C 112.199219 115.730469 112.566406 115.867188 112.910156 116.066406 C 113.253906 116.265625 113.550781 116.515625 113.808594 116.820312 C 114.0625 117.125 114.257812 117.464844 114.394531 117.839844 C 114.527344 118.210938 114.597656 118.597656 114.597656 118.992188 C 114.597656 119.390625 114.527344 119.777344 114.394531 120.148438 C 114.257812 120.523438 114.0625 120.863281 113.808594 121.167969 C 113.550781 121.472656 113.253906 121.722656 112.910156 121.921875 C 112.566406 122.121094 112.199219 122.257812 111.808594 122.328125 Z M 83.148438 74.113281 C 82.75 74.078125 82.371094 73.964844 82.015625 73.777344 C 81.660156 73.589844 81.351562 73.339844 81.09375 73.03125 C 80.835938 72.722656 80.648438 72.375 80.523438 71.992188 C 80.402344 71.609375 80.359375 71.214844 80.394531 70.816406 C 80.363281 70.414062 80.40625 70.023438 80.527344 69.640625 C 80.652344 69.261719 80.839844 68.914062 81.097656 68.609375 C 81.355469 68.300781 81.664062 68.054688 82.019531 67.867188 C 82.375 67.683594 82.75 67.570312 83.148438 67.535156 L 119.601562 67.535156 C 119.996094 67.578125 120.371094 67.691406 120.71875 67.882812 C 121.070312 68.070312 121.371094 68.316406 121.625 68.625 C 121.878906 68.929688 122.066406 69.273438 122.1875 69.652344 C 122.304688 70.03125 122.351562 70.417969 122.320312 70.816406 C 122.355469 71.214844 122.3125 71.601562 122.195312 71.984375 C 122.074219 72.367188 121.890625 72.710938 121.636719 73.019531 C 121.382812 73.328125 121.078125 73.578125 120.726562 73.769531 C 120.375 73.957031 120 74.074219 119.601562 74.113281 Z M 67.339844 114.484375 C 67.855469 114.484375 68.351562 114.585938 68.828125 114.78125 C 69.300781 114.980469 69.722656 115.257812 70.085938 115.625 C 70.449219 115.988281 70.730469 116.40625 70.925781 116.882812 C 71.125 117.359375 71.222656 117.851562 71.222656 118.367188 C 71.222656 118.882812 71.125 119.378906 70.925781 119.855469 C 70.730469 120.328125 70.449219 120.75 70.085938 121.113281 C 69.722656 121.476562 69.300781 121.757812 68.828125 121.953125 C 68.351562 122.152344 67.855469 122.25 67.339844 122.25 C 66.828125 122.25 66.332031 122.152344 65.855469 121.953125 C 65.378906 121.757812 64.960938 121.476562 64.597656 121.113281 C 64.230469 120.75 63.953125 120.328125 63.753906 119.855469 C 63.558594 119.378906 63.460938 118.882812 63.460938 118.367188 C 63.460938 117.851562 63.558594 117.359375 63.753906 116.882812 C 63.953125 116.40625 64.230469 115.988281 64.597656 115.625 C 64.960938 115.257812 65.378906 114.980469 65.855469 114.78125 C 66.332031 114.585938 66.828125 114.484375 67.339844 114.484375 Z M 67.339844 90.71875 C 67.855469 90.71875 68.351562 90.816406 68.828125 91.015625 C 69.300781 91.210938 69.722656 91.492188 70.085938 91.855469 C 70.449219 92.21875 70.730469 92.640625 70.925781 93.117188 C 71.125 93.589844 71.222656 94.085938 71.222656 94.601562 C 71.222656 95.117188 71.125 95.609375 70.925781 96.085938 C 70.730469 96.5625 70.449219 96.980469 70.085938 97.347656 C 69.722656 97.710938 69.300781 97.992188 68.828125 98.1875 C 68.351562 98.382812 67.855469 98.484375 67.339844 98.484375 C 66.828125 98.484375 66.332031 98.382812 65.855469 98.1875 C 65.378906 97.992188 64.960938 97.710938 64.597656 97.347656 C 64.230469 96.980469 63.953125 96.5625 63.753906 96.085938 C 63.558594 95.609375 63.460938 95.117188 63.460938 94.601562 C 63.460938 94.085938 63.558594 93.589844 63.753906 93.117188 C 63.953125 92.640625 64.230469 92.21875 64.597656 91.855469 C 64.960938 91.492188 65.378906 91.210938 65.855469 91.015625 C 66.332031 90.816406 66.828125 90.71875 67.339844 90.71875 Z M 67.339844 66.960938 C 67.855469 66.960938 68.351562 67.058594 68.828125 67.257812 C 69.300781 67.453125 69.722656 67.734375 70.085938 68.097656 C 70.449219 68.464844 70.730469 68.882812 70.925781 69.359375 C 71.125 69.832031 71.222656 70.328125 71.222656 70.84375 C 71.222656 71.359375 71.125 71.855469 70.925781 72.328125 C 70.730469 72.804688 70.449219 73.226562 70.085938 73.589844 C 69.722656 73.953125 69.300781 74.234375 68.828125 74.429688 C 68.351562 74.628906 67.855469 74.726562 67.339844 74.726562 C 66.828125 74.726562 66.332031 74.628906 65.855469 74.429688 C 65.378906 74.234375 64.960938 73.953125 64.597656 73.589844 C 64.230469 73.226562 63.953125 72.804688 63.753906 72.328125 C 63.558594 71.855469 63.460938 71.359375 63.460938 70.84375 C 63.460938 70.328125 63.558594 69.832031 63.753906 69.359375 C 63.953125 68.882812 64.230469 68.464844 64.597656 68.097656 C 64.960938 67.734375 65.378906 67.453125 65.855469 67.257812 C 66.332031 67.058594 66.828125 66.960938 67.339844 66.960938 Z M 67.339844 66.960938 " />
    </g>
</svg>